<?xml version="1.0" encoding="UTF-8"?>
<svg id="Layer_2" data-name="Layer 2" xmlns="http://www.w3.org/2000/svg" viewBox="0 0 2000 2000">
  <defs>
    <style>
      .cls-1 {
        fill: #3b54a4;
      }

      .cls-2 {
        fill: #5674b8;
      }
    </style>
  </defs>
  <g id="Layer_1-2" data-name="Layer 1">
    <g>
      <path d="M1239.22,1103.35h10.24c2.83,0,5.12,2.29,5.12,5.12v30.71c0,2.83-2.29,5.12-5.12,5.12h-10.24c-2.83,0-5.12-2.29-5.12-5.12v-30.72c0-2.83,2.29-5.12,5.12-5.12Z"/>
      <path d="M0,0V2000H2000V0H0ZM1494.5,826.86c0-12.44,10.09-22.53,22.53-22.53h22.53c12.44,0,22.53,10.09,22.53,22.53h0c0,12.44-10.09,22.53-22.53,22.53h-22.53c-12.44,0-22.53-10.09-22.53-22.53h0Zm0,180.22c0-12.44,10.09-22.53,22.53-22.53h90.11c12.44,0,22.53,10.09,22.53,22.53h0c0,12.44-10.09,22.53-22.53,22.53h-90.11c-12.44,0-22.53-10.09-22.53-22.53h0Zm-352.55-112.12c0-5.87,4.76-10.63,10.63-10.63h21.27c5.87,0,10.63,4.76,10.63,10.63v106.32c0,5.87,4.76,10.63,10.63,10.63h21.26c5.87,0,10.63-4.76,10.63-10.63v-106.32c0-5.87,4.76-10.63,10.63-10.63h21.27c5.87,0,10.63,4.76,10.63,10.63v127.59c0,5.87-4.76,10.63-10.63,10.63h0c-5.87,0-10.63,4.76-10.63,10.63s-4.76,10.63-10.63,10.63h-63.79c-5.87,0-10.63-4.76-10.63-10.63s-4.76-10.63-10.63-10.63h0c-5.87,0-10.63-4.76-10.63-10.63v-127.59Zm-914.37,21.27c0,5.87-4.76,10.63-10.63,10.63h-21.27c-5.87,0-10.63,4.76-10.63,10.63v63.79c0,5.87,4.76,10.63,10.63,10.63h21.27c5.87,0,10.63,4.76,10.63,10.63v21.27c0,5.87-4.76,10.63-10.63,10.63H110.63c-5.87,0-10.63-4.76-10.63-10.63v-21.27c0-5.87,4.76-10.63,10.63-10.63h21.27c5.87,0,10.63-4.76,10.63-10.63v-63.79c0-5.87-4.76-10.63-10.63-10.63h-21.27c-5.87,0-10.63-4.76-10.63-10.63v-21.27c0-5.87,4.76-10.63,10.63-10.63h106.32c5.87,0,10.63,4.76,10.63,10.63v21.27Zm148.85,127.58c0,5.87-4.76,10.63-10.63,10.63h-21.27c-5.87,0-10.63-4.76-10.63-10.63v-42.53c0-5.87-4.76-10.63-10.63-10.63h0c-5.87,0-10.63-4.76-10.63-10.63h0c0-5.88-4.76-10.64-10.63-10.64s-10.63,4.76-10.63,10.63v63.8c0,5.87-4.76,10.63-10.63,10.63h-21.27c-5.87,0-10.63-4.76-10.63-10.63v-148.85c0-5.87,4.76-10.63,10.63-10.63h21.27c5.87,0,10.63,4.76,10.63,10.63s4.76,10.63,10.63,10.63,10.63,4.76,10.63,10.63h0c0,5.88,4.76,10.64,10.63,10.64h0c5.87,0,10.63-4.76,10.63-10.63v-21.27c0-5.87,4.76-10.63,10.63-10.63h21.27c5.87,0,10.63,4.76,10.63,10.63v148.85Zm148.85-127.58c0,5.87-4.76,10.63-10.63,10.63h-63.79c-5.87,0-10.63,4.76-10.63,10.63s4.76,10.63,10.63,10.63h21.26c5.87,0,10.63,4.76,10.63,10.63v21.27c0,5.87-4.76,10.63-10.63,10.63h-21.26c-5.87,0-10.63,4.76-10.63,10.63v42.53c0,5.87-4.76,10.63-10.63,10.63h-21.27c-5.87,0-10.63-4.76-10.63-10.63v-127.59c0-5.87,4.76-10.63,10.63-10.63h0c5.87,0,10.63-4.76,10.63-10.63s4.76-10.63,10.63-10.63h85.06c5.87,0,10.63,4.76,10.63,10.63v21.27Zm148.85,0c0,5.87-4.76,10.63-10.63,10.63h-21.27c-5.87,0-10.63,4.76-10.63,10.63v63.79c0,5.87,4.76,10.63,10.63,10.63h21.27c5.87,0,10.63,4.76,10.63,10.63v21.27c0,5.87-4.76,10.63-10.63,10.63h-106.32c-5.87,0-10.63-4.76-10.63-10.63v-21.27c0-5.87,4.76-10.63,10.63-10.63h21.27c5.87,0,10.63-4.76,10.63-10.63v-63.79c0-5.87-4.76-10.63-10.63-10.63h-21.27c-5.87,0-10.63-4.76-10.63-10.63v-21.27c0-5.87,4.76-10.63,10.63-10.63h106.32c5.87,0,10.63,4.76,10.63,10.63v21.27Zm148.85,127.58c0,5.87-4.76,10.63-10.63,10.63h-21.27c-5.87,0-10.63-4.76-10.63-10.63v-42.53c0-5.87-4.76-10.63-10.63-10.63h0c-5.87,0-10.63-4.76-10.63-10.63h0c0-5.88-4.76-10.64-10.63-10.64s-10.63,4.76-10.63,10.63v63.8c0,5.87-4.76,10.63-10.63,10.63h-21.27c-5.87,0-10.63-4.76-10.63-10.63v-148.85c0-5.87,4.76-10.63,10.63-10.63h21.27c5.87,0,10.63,4.76,10.63,10.63s4.76,10.63,10.63,10.63,10.63,4.76,10.63,10.63h0c0,5.88,4.76,10.64,10.63,10.64h0c5.87,0,10.63-4.76,10.63-10.63v-21.27c0-5.87,4.76-10.63,10.63-10.63h21.27c5.87,0,10.63,4.76,10.63,10.63v148.85Zm148.85-127.58c0,5.87-4.76,10.63-10.63,10.63h-21.27c-5.87,0-10.63,4.76-10.63,10.63v63.79c0,5.87,4.76,10.63,10.63,10.63h21.27c5.87,0,10.63,4.76,10.63,10.63v21.27c0,5.87-4.76,10.63-10.63,10.63h-106.32c-5.87,0-10.63-4.76-10.63-10.63v-21.27c0-5.87,4.76-10.63,10.63-10.63h21.27c5.87,0,10.63-4.76,10.63-10.63v-63.79c0-5.87-4.76-10.63-10.63-10.63h-21.27c-5.87,0-10.63-4.76-10.63-10.63v-21.27c0-5.87,4.76-10.63,10.63-10.63h106.32c5.87,0,10.63,4.76,10.63,10.63v21.27Zm148.85,0c0,5.87-4.76,10.63-10.63,10.63h-21.27c-5.87,0-10.63,4.76-10.63,10.63v106.32c0,5.87-4.76,10.63-10.63,10.63h-21.26c-5.87,0-10.63-4.76-10.63-10.63v-106.32c0-5.87-4.76-10.63-10.63-10.63h-21.27c-5.87,0-10.63-4.76-10.63-10.63v-21.27c0-5.87,4.76-10.63,10.63-10.63h106.32c5.87,0,10.63,4.76,10.63,10.63v21.27Zm82.7,202.47c0,2.83-2.29,5.12-5.12,5.12s-5.12,2.29-5.12,5.12h0c0,2.83-2.29,5.12-5.12,5.12h-20.48c-2.83,0-5.12,2.29-5.12,5.12s2.29,5.12,5.12,5.12h30.72c2.83,0,5.12,2.29,5.12,5.12v10.24c0,2.83-2.29,5.12-5.12,5.12h-51.19c-2.83,0-5.12-2.29-5.12-5.12v-30.72c0-2.83,2.29-5.12,5.12-5.12s5.12-2.29,5.12-5.12,2.29-5.12,5.12-5.12h20.48c2.83,0,5.12-2.29,5.12-5.12s-2.29-5.12-5.12-5.12h-30.71c-2.83,0-5.12-2.29-5.12-5.12v-10.24c0-2.83,2.29-5.12,5.12-5.12h40.95c2.83,0,5.12,2.29,5.12,5.12h0c0,2.83,2.29,5.12,5.12,5.12s5.12,2.29,5.12,5.12v20.48Zm71.67,30.72c0,2.83-2.29,5.12-5.12,5.12h0c-2.83,0-5.12,2.29-5.12,5.12s-2.29,5.12-5.12,5.12h-30.72c-2.83,0-5.12-2.29-5.12-5.12s-2.29-5.12-5.12-5.12h0c-2.83,0-5.12-2.29-5.12-5.12v-51.19c0-2.83,2.29-5.12,5.12-5.12h0c2.83,0,5.12-2.29,5.12-5.12h0c0-2.83,2.29-5.12,5.12-5.12h30.72c2.83,0,5.12,2.29,5.12,5.12h0c0,2.83,2.29,5.12,5.12,5.12h0c2.83,0,5.12,2.29,5.12,5.12v51.19Zm71.67-30.72c0,2.83-2.29,5.12-5.12,5.12s-5.12,2.29-5.12,5.12h0c0,2.83-2.29,5.12-5.12,5.12h-20.48c-2.83,0-5.12,2.29-5.12,5.12s2.29,5.12,5.12,5.12h30.72c2.83,0,5.12,2.29,5.12,5.12v10.24c0,2.83-2.29,5.12-5.12,5.12h-51.19c-2.83,0-5.12-2.29-5.12-5.12v-30.72c0-2.83,2.29-5.12,5.12-5.12s5.12-2.29,5.12-5.12,2.29-5.12,5.12-5.12h20.48c2.83,0,5.12-2.29,5.12-5.12s-2.29-5.12-5.12-5.12h-30.71c-2.83,0-5.12-2.29-5.12-5.12v-10.24c0-2.83,2.29-5.12,5.12-5.12h40.95c2.83,0,5.12,2.29,5.12,5.12h0c0,2.83,2.29,5.12,5.12,5.12s5.12,2.29,5.12,5.12v20.48Zm66.38,31.28c0,2.83-2.29,5.12-5.12,5.12s-5.12,2.29-5.12,5.12-2.29,5.12-5.12,5.12h-40.95c-2.83,0-5.12-2.29-5.12-5.12v-10.24c0-2.83,2.29-5.12,5.12-5.12h30.71c2.83,0,5.12-2.29,5.12-5.12s-2.29-5.12-5.12-5.12h-10.24c-2.83,0-5.12-2.29-5.12-5.12v-10.24c0-2.83,2.29-5.12,5.12-5.12h10.24c2.83,0,5.12-2.29,5.12-5.12s-2.29-5.12-5.12-5.12h-30.71c-2.83,0-5.12-2.29-5.12-5.12v-10.24c0-2.83,2.29-5.12,5.12-5.12h40.95c2.83,0,5.12,2.29,5.12,5.12h0c0,2.83,2.29,5.12,5.12,5.12s5.12,2.29,5.12,5.12v51.19Zm5.29-233.75c0,5.87-4.76,10.63-10.63,10.63h-63.79c-5.87,0-10.63,4.76-10.63,10.63s4.76,10.63,10.63,10.63h42.53c5.87,0,10.63,4.76,10.63,10.63h0c0,5.87,4.76,10.63,10.63,10.63h0c5.87,0,10.63,4.76,10.63,10.63v42.53c0,5.87-4.76,10.63-10.63,10.63h0c-5.87,0-10.63,4.76-10.63,10.63s-4.76,10.63-10.63,10.63h-85.06c-5.87,0-10.63-4.76-10.63-10.63v-21.27c0-5.87,4.76-10.63,10.63-10.63h63.79c5.87,0,10.63-4.76,10.63-10.63h0c0-5.87-4.76-10.63-10.63-10.63h-42.53c-5.87,0-10.63-4.76-10.63-10.63h0c0-5.88-4.76-10.64-10.63-10.64h0c-5.87,0-10.63-4.76-10.63-10.63v-42.53c0-5.87,4.76-10.63,10.63-10.63h0c5.87,0,10.63-4.76,10.63-10.63s4.76-10.63,10.63-10.63h85.06c5.87,0,10.63,4.76,10.63,10.63v21.27Zm143.69,226.02c0,12.44-10.09,22.53-22.53,22.53h-22.53c-12.44,0-22.53-10.09-22.53-22.53h0c0-12.44,10.09-22.53,22.53-22.53h22.53c12.44,0,22.53,10.09,22.53,22.53h0Zm337.69-155.03c-.26,.95-.69,1.77-1.26,2.48-3.73,4.7-13.2,5.1-15.53,11.12-3.01,7.77,8.97,16.08,5.06,23.44-2.06,3.86-7.99,5.67-7.83,10.04,.16,4.28,6.25,6.06,7.28,10.21,.85,3.42-2.02,6.49-3.76,9.55-6.52,11.51,2.87,25.5,2.83,38.73-.03,10.18-6.34,20.08-15.56,24.4-12.33,5.78-27.32,1.67-40.12,6.33-9.72,3.53-17.36,12.31-19.52,22.43-1.24,5.83-1.15,11.51-6.43,15.46-3.39,2.53-7.92,3.33-12.77,3.36h.02s-27.34,0-27.34,0h-112.64c-12.44,0-22.53-10.09-22.53-22.53s-10.09-22.53-22.53-22.53h-22.53c-12.44,0-22.53-10.09-22.53-22.53s10.09-22.53,22.53-22.53h22.53c12.44,0,22.53-10.09,22.53-22.53s10.09-22.53,22.53-22.53h22.53c12.44,0,22.53-10.09,22.53-22.53s-10.09-22.53-22.53-22.53h-22.53c-12.44,0-22.53-10.09-22.53-22.53s-10.09-22.53-22.53-22.53h-22.53c-12.44,0-22.53-10.09-22.53-22.53s10.09-22.53,22.53-22.53h90.11c12.44,0,22.53-10.09,22.53-22.53s-10.09-22.53-22.53-22.53h-22.53c-12.44,0-22.53-10.09-22.53-22.53s10.09-22.53,22.53-22.53h69.44c45.11,0,86.26,22.43,110.78,58.06h0c.07,.09,.13,.19,.2,.29,.33,.48,.65,.96,.97,1.45,.19,.28,.38,.56,.56,.85,.32,.49,.64,.98,.95,1.48,.18,.28,.36,.57,.54,.85,.31,.5,.62,1,.92,1.5,.18,.29,.35,.58,.52,.87,.3,.5,.59,1.01,.89,1.52,.17,.29,.34,.59,.51,.88,.29,.51,.57,1.02,.85,1.53,.17,.3,.33,.6,.5,.91,.28,.51,.55,1.03,.82,1.54,.16,.31,.32,.62,.48,.93,.26,.52,.52,1.03,.78,1.55,.16,.32,.32,.63,.47,.95,.25,.52,.49,1.04,.74,1.55,.15,.33,.31,.65,.46,.98,.24,.52,.47,1.04,.7,1.56,.15,.33,.3,.67,.45,1,.23,.52,.45,1.05,.67,1.58,.14,.34,.29,.67,.43,1.01,.22,.53,.42,1.06,.63,1.59,.14,.35,.28,.69,.41,1.04,.2,.53,.4,1.07,.6,1.6,.13,.35,.26,.7,.39,1.05,.19,.54,.38,1.09,.57,1.63,.12,.35,.25,.7,.37,1.05,.19,.56,.37,1.12,.55,1.68,.11,.34,.23,.68,.33,1.03,.19,.61,.37,1.22,.56,1.84,.09,.3,.18,.6,.27,.9,.27,.92,.52,1.84,.77,2.76,.14,.51,.27,1.01,.4,1.52,3.43,13.49,5.17,27.91,13.09,39.36,9.28,13.42,25.9,20.9,33.48,35.35,1.24,2.36,2.22,5.08,1.53,7.65Z"/>
    </g>
    <g>
      <path class="cls-1" d="M1804.93,1161.42c5.29-3.95,5.19-9.64,6.43-15.46,2.16-10.12,9.79-18.89,19.52-22.43,12.8-4.65,27.79-.55,40.12-6.33,9.22-4.32,15.53-14.22,15.56-24.4,.04-13.23-9.35-27.22-2.83-38.73,1.74-3.07,4.61-6.13,3.76-9.55-1.04-4.16-7.12-5.93-7.28-10.21-.17-4.37,5.77-6.18,7.83-10.04,3.92-7.35-8.07-15.67-5.06-23.44,2.33-6.03,11.8-6.42,15.53-11.12,.57-.72,1.01-1.53,1.26-2.48,.69-2.57-.29-5.29-1.53-7.65-7.58-14.44-24.2-21.93-33.48-35.35-7.92-11.44-9.66-25.87-13.09-39.36-.13-.51-.26-1.01-.4-1.52-15.61-58.55-69.05-99.01-129.64-99.01h-69.44c-12.44,0-22.53,10.09-22.53,22.53h0c0,12.44,10.09,22.53,22.53,22.53h22.53c12.44,0,22.53,10.09,22.53,22.53h0c0,12.44-10.09,22.53-22.53,22.53h-90.11c-12.44,0-22.53,10.09-22.53,22.53h0c0,12.44,10.09,22.53,22.53,22.53h22.53c12.44,0,22.53,10.09,22.53,22.53h0c0,12.44,10.09,22.53,22.53,22.53h22.53c12.44,0,22.53,10.09,22.53,22.53h0c0,12.44-10.09,22.53-22.53,22.53h-22.53c-12.44,0-22.53,10.09-22.53,22.53h0c0,12.44-10.09,22.53-22.53,22.53h-22.53c-12.44,0-22.53,10.09-22.53,22.53h0c0,12.44,10.09,22.53,22.53,22.53h22.53c12.44,0,22.53,10.09,22.53,22.53h0c0,12.44,10.09,22.53,22.53,22.53h139.96c4.86-.04,9.39-.83,12.77-3.36Z"/>
      <path class="cls-2" d="M1804.93,1161.42c5.29-3.95,5.19-9.64,6.43-15.46,2.16-10.12,9.79-18.89,19.52-22.43,12.8-4.65,27.79-.55,40.12-6.33,9.22-4.32,15.53-14.22,15.56-24.4,.04-13.23-9.35-27.22-2.83-38.73,1.74-3.07,4.61-6.13,3.76-9.55-1.04-4.16-7.12-5.93-7.28-10.21-.17-4.37,5.77-6.18,7.83-10.04,3.92-7.35-8.07-15.67-5.06-23.44,2.33-6.03,11.8-6.42,15.53-11.12,.57-.72,1.01-1.53,1.26-2.48,.69-2.57-.29-5.29-1.53-7.65-7.58-14.44-24.2-21.93-33.48-35.35-7.92-11.44-9.66-25.87-13.09-39.36-.13-.51-.26-1.01-.4-1.52-3.99-14.96-10.45-28.73-18.86-40.96v9.53c0,12.44-10.09,22.53-22.53,22.53h-22.53c-12.44,0-22.53,10.09-22.53,22.53h0c0,12.44-10.09,22.53-22.53,22.53h-22.53c-12.44,0-22.53,10.09-22.53,22.53h0c0,12.44,10.09,22.53,22.53,22.53h90.11c12.44,0,22.53,10.09,22.53,22.53h0c0,12.44-10.09,22.53-22.53,22.53h-22.53c-12.44,0-22.53,10.09-22.53,22.53h0c0,12.44-10.09,22.53-22.53,22.53h-90.11c-12.44,0-22.53,10.09-22.53,22.53h0c0,12.44,10.09,22.53,22.53,22.53h22.53c12.44,0,22.53,10.09,22.53,22.53h0c0,12.44,10.09,22.53,22.53,22.53h72.38c4.86-.04,9.39-.83,12.77-3.36Z"/>
      <rect class="cls-1" x="1494.5" y="1119.72" width="67.58" height="45.06" rx="22.53" ry="22.53"/>
      <path class="cls-1" d="M1562.08,984.56h-45.06c-12.44,0-22.53,10.09-22.53,22.53h0c0,12.44,10.09,22.53,22.53,22.53h90.11c12.44,0,22.53-10.09,22.53-22.53h0c0-12.44-10.09-22.53-22.53-22.53h-45.06Z"/>
      <path class="cls-1" d="M1517.03,804.34h22.53c12.44,0,22.53,10.09,22.53,22.53h0c0,12.44-10.09,22.53-22.53,22.53h-22.53c-12.44,0-22.53-10.09-22.53-22.53h0c0-12.44,10.09-22.53,22.53-22.53Z"/>
    </g>
  </g>
</svg>